<svg width="49" height="46" viewBox="0 0 49 46" fill="none" xmlns="http://www.w3.org/2000/svg">
<path fill-rule="evenodd" clip-rule="evenodd" d="M22.8209 0.852939C22.8676 0.906615 22.9354 0.891909 22.9937 0.90588C23.5995 1.05367 24.0179 1.41838 24.2038 2.01912C24.4473 2.80514 24.0879 3.625 23.3436 3.98235C23.1147 4.01764 23.0928 4.16985 23.0943 4.37132C23.1016 5.85588 23.0979 7.34044 23.0979 8.82573C23.0979 8.88014 23.0965 8.93529 23.0987 8.9897C23.0994 9.01912 23.0892 9.05441 23.1205 9.07353C23.1562 9.09632 23.1774 9.06176 23.1978 9.04338C23.2386 9.00662 23.2751 8.96691 23.3137 8.92794C24.0201 8.21544 24.7265 7.50294 25.4336 6.7897C25.4715 6.75147 25.5094 6.71176 25.5495 6.67426C25.6858 6.54779 25.8454 6.4772 26.0328 6.48014C26.1181 6.48088 26.2034 6.48014 26.2887 6.48014C27.35 6.48014 28.4114 6.48162 29.4728 6.48235C29.5275 6.48235 29.5814 6.48162 29.6361 6.48162C29.717 6.48088 29.7885 6.45294 29.8461 6.39632C30.0611 6.18161 30.2732 5.96544 30.489 5.75147C30.54 5.70147 30.5182 5.65367 30.4948 5.60367C30.3687 5.33676 30.3213 5.05588 30.3403 4.76103C30.3862 4.04706 30.9366 3.43014 31.6313 3.2897C32.4499 3.12426 33.3714 3.64191 33.5398 4.61103C33.6914 5.48823 33.149 6.27059 32.3253 6.4772C32.0067 6.55662 31.6955 6.52794 31.3886 6.42059C31.3375 6.4022 31.2865 6.38235 31.2384 6.35735C31.1728 6.32426 31.1232 6.34044 31.0729 6.39117C30.9096 6.55882 30.7434 6.72206 30.5794 6.88823C30.4861 6.98162 30.3921 7.075 30.3017 7.17132C30.1763 7.30441 30.0246 7.36323 29.8439 7.36103C29.6193 7.35882 29.3948 7.35956 29.1703 7.36103C29.1266 7.36103 29.0828 7.36838 29.0252 7.37353C29.058 7.45956 29.1156 7.50073 29.163 7.54853C29.5289 7.91912 29.8963 8.28823 30.263 8.65956C30.3119 8.70882 30.3636 8.75882 30.4023 8.81617C30.5218 8.9897 30.5065 9.20735 30.3702 9.35514C30.2244 9.51323 30.0035 9.54191 29.8205 9.42059C29.7571 9.37794 29.701 9.32132 29.647 9.26617C29.0989 8.7147 28.5514 8.16103 28.0039 7.60882C27.9653 7.56985 27.9245 7.53309 27.8895 7.49191C27.8027 7.38676 27.6919 7.35588 27.5593 7.35735C27.1335 7.36176 26.7071 7.36323 26.2806 7.35735C26.1458 7.35588 26.0474 7.40441 25.9541 7.49926C25.0472 8.41838 24.1374 9.33529 23.227 10.2507C23.1395 10.3382 23.0928 10.4301 23.0936 10.5596C23.0979 11.7949 23.0965 13.0287 23.0972 14.2632C23.0972 14.2934 23.1023 14.3228 23.1052 14.3522C23.181 14.3684 23.2044 14.3074 23.2401 14.2728C23.762 13.7493 24.2818 13.2235 24.8023 12.6985C24.8511 12.6493 24.9 12.5978 24.9503 12.5493C25.0676 12.4368 25.2069 12.3772 25.3694 12.3757C25.4467 12.3757 25.5247 12.375 25.602 12.3757C28.1898 12.3765 30.777 12.3779 33.3641 12.3787C33.4107 12.3787 33.4574 12.3772 33.5033 12.3794C33.644 12.386 33.757 12.3338 33.8561 12.2331C34.5166 11.5625 35.1785 10.8941 35.8404 10.2243C35.8623 10.2022 35.8834 10.1779 35.9038 10.1551C35.9272 10.1301 35.9315 10.0993 35.9191 10.0691C35.8944 10.0037 35.8637 9.9397 35.8397 9.87353C35.5197 9.01397 35.9804 7.95882 36.9937 7.72647C38.074 7.48014 38.9407 8.32426 38.9699 9.24264C38.9947 10.0456 38.4713 10.7382 37.6884 10.9125C37.4033 10.9757 37.1183 10.9596 36.8406 10.861C36.775 10.8375 36.7101 10.8125 36.6452 10.786C36.6037 10.7699 36.5701 10.7794 36.5388 10.8081C36.5162 10.8287 36.4943 10.8522 36.4724 10.8735C36.0234 11.3265 35.5736 11.7794 35.1246 12.2331C35.0969 12.2603 35.0699 12.2882 35.0473 12.3191C35.032 12.3404 35.0422 12.3706 35.0655 12.3721C35.1348 12.3787 35.204 12.3779 35.274 12.3779C36.6919 12.3787 38.1097 12.3794 39.5268 12.3794C39.6041 12.3794 39.6821 12.3765 39.7594 12.3846C40.0021 12.4081 40.1632 12.5846 40.1603 12.8169C40.1581 13.0507 39.9934 13.2228 39.7506 13.2404C39.6734 13.2471 39.5954 13.2434 39.5181 13.2434C36.5898 13.2434 33.6615 13.2434 30.7332 13.2434C30.6559 13.2434 30.5787 13.2449 30.5007 13.2471C30.4701 13.2478 30.4496 13.2904 30.4693 13.314C30.5101 13.3603 30.5524 13.4066 30.5954 13.4515C30.8892 13.7522 31.1837 14.0522 31.476 14.3544C31.5242 14.4037 31.5737 14.4559 31.6094 14.5147C31.7151 14.6875 31.6823 14.9147 31.538 15.0507C31.3907 15.1897 31.1684 15.2081 31.0037 15.089C30.941 15.0434 30.8878 14.9846 30.8338 14.9294C30.36 14.4463 29.8869 13.9625 29.413 13.4779C29.3693 13.4331 29.3256 13.389 29.2826 13.3441C29.2133 13.2735 29.1302 13.2397 29.0318 13.2426C28.9932 13.2441 28.9545 13.2426 28.9159 13.2426C27.8625 13.2419 26.8084 13.2419 25.755 13.2419C25.7084 13.2419 25.6625 13.2419 25.6158 13.2419C25.5261 13.2441 25.4503 13.2779 25.3862 13.3397C25.3701 13.3551 25.3534 13.3728 25.3366 13.389C24.6353 14.0963 23.9355 14.8044 23.2321 15.5096C23.1373 15.6044 23.0863 15.7044 23.0928 15.8404C23.1001 15.9882 23.095 16.1368 23.095 16.2853C23.095 21.5287 23.095 26.7721 23.095 32.0154C23.095 32.3699 23.1417 32.3221 22.7874 32.3257C22.6401 32.3279 22.4929 32.3279 22.3456 32.325C22.2458 32.3235 22.2312 32.3051 22.2275 32.1971C22.2261 32.1426 22.2268 32.0882 22.2268 32.0331C22.2275 27.6096 22.229 23.1875 22.2297 18.7647C22.2297 18.3309 22.2275 18.3235 21.9286 18.0228C20.7995 16.8853 19.6703 15.7471 18.5411 14.6096C18.4974 14.5654 18.4536 14.5213 18.4092 14.4772C18.2765 14.3456 18.275 14.3412 18.0935 14.4191C17.2792 14.7662 16.3046 14.3794 15.9649 13.5051C15.5734 12.4978 16.2521 11.4287 17.2574 11.2978C18.1219 11.1853 18.9049 11.7809 19.0638 12.6213C19.1206 12.9228 19.082 13.211 18.9836 13.4956C18.9654 13.5471 18.9428 13.5978 18.9231 13.6478C18.9092 13.6809 18.9187 13.711 18.9384 13.7353C18.9624 13.7662 18.9916 13.7919 19.0186 13.8191C20.037 14.8471 21.0561 15.875 22.0759 16.9015C22.1116 16.9382 22.1371 16.9926 22.1991 16.9919C22.2421 16.9537 22.2246 16.9037 22.2246 16.8603C22.2268 15.7662 22.2239 14.6721 22.2312 13.5779C22.2326 13.4096 22.1554 13.3029 22.0482 13.1949C21.0284 12.1684 20.01 11.1397 18.9916 10.1125C18.9092 10.0294 18.8261 9.94706 18.7452 9.86323C18.6709 9.78603 18.5834 9.74706 18.4755 9.75147C18.3829 9.75367 18.2896 9.75147 18.1963 9.75147C16.5 9.75147 14.8036 9.75294 13.1066 9.75367C13.0366 9.75367 12.9674 9.75367 12.8974 9.75367C12.6933 9.75367 12.522 9.68235 12.3776 9.53382C12.0853 9.23309 11.7871 8.93603 11.4919 8.63676C11.454 8.59853 11.4088 8.56397 11.3775 8.52132C11.2703 8.36985 11.1435 8.33235 10.9845 8.44044C10.3117 8.66544 9.70519 8.5522 9.21824 8.02426C8.75315 7.51985 8.65036 6.91691 8.91644 6.28456C9.17887 5.66103 9.66874 5.33014 10.3445 5.29632C11.1216 5.25735 11.7871 5.80441 11.9606 6.51397C12.0379 6.83309 12.0248 7.14926 11.922 7.46103C11.9001 7.52794 11.8732 7.59264 11.8462 7.65735C11.8258 7.70588 11.8323 7.74779 11.8688 7.78529C11.9184 7.83456 11.9665 7.88529 12.016 7.93529C12.2843 8.20662 12.5548 8.475 12.8194 8.74926C12.9069 8.84044 13.0016 8.87867 13.1277 8.87794C13.864 8.87353 14.5995 8.875 15.3358 8.87426C15.3664 8.87426 15.3978 8.87206 15.4284 8.86985C15.459 8.86691 15.4758 8.82573 15.4539 8.80073C15.4131 8.75441 15.3708 8.70809 15.327 8.66397C15.147 8.48088 14.9655 8.29926 14.7854 8.11617C14.6943 8.025 14.6374 7.91912 14.6374 7.78456C14.6382 7.45514 14.9706 7.2522 15.2629 7.40367C15.3402 7.44411 15.3985 7.50662 15.459 7.56691C15.8096 7.91985 16.1603 8.27426 16.5109 8.62794C16.5437 8.66103 16.5794 8.69191 16.6086 8.72794C16.699 8.83897 16.812 8.88309 16.9556 8.8772C17.1721 8.86838 17.3893 8.875 17.6066 8.87426C17.947 8.87426 18.2889 8.88456 18.6286 8.86911C18.883 8.85809 19.0703 8.95588 19.2446 9.13382C20.1602 10.0662 21.0823 10.9926 22.003 11.9206C22.0613 11.9794 22.1233 12.0338 22.1969 12.1029C22.2355 12.0169 22.2246 11.9471 22.2246 11.8794C22.2253 10.9573 22.2261 10.0353 22.2261 9.11323C22.2261 8.86323 22.2224 8.6125 22.2283 8.36323C22.2312 8.22867 22.1947 8.11764 22.0949 8.02867C22.0606 7.99706 22.0292 7.96176 21.9964 7.92867C20.572 6.47132 19.1469 5.01176 17.7232 3.55367C17.6583 3.4875 17.5971 3.41617 17.5373 3.34485C17.4382 3.2272 17.4382 2.98456 17.5293 2.85882C17.6343 2.7147 17.7771 2.65294 17.9543 2.675C18.0264 2.68309 18.0891 2.71397 18.1424 2.75882C18.1956 2.80441 18.2459 2.85367 18.2947 2.90294C19.534 4.17206 20.7725 5.44191 22.0147 6.70956C22.0693 6.76544 22.0992 6.86029 22.1991 6.86176C22.2385 6.78897 22.2195 6.71029 22.2195 6.63456C22.2224 5.86912 22.2232 5.10294 22.2246 4.3375C22.2246 4.29117 22.2224 4.24338 22.2246 4.19706C22.229 4.11691 22.1984 4.06838 22.1196 4.03823C21.8864 3.94779 21.6779 3.81691 21.5007 3.63456C20.6631 2.76691 21.0371 1.29706 22.1852 0.942644C22.2873 0.911027 22.4025 0.922792 22.4929 0.852203C22.6044 0.852939 22.7123 0.852939 22.8209 0.852939Z" fill="#00A0FA"/>
<path fill-rule="evenodd" clip-rule="evenodd" d="M15.5596 45.6588C15.5261 45.6199 15.4772 45.6294 15.4335 45.6213C15.3256 45.6022 15.2177 45.5868 15.1105 45.5618C14.7745 45.4838 14.5237 45.2735 14.3036 45.0191C14.2022 44.9022 14.1126 44.7743 14.0302 44.6412C12.4833 42.125 10.9372 39.6088 9.38954 37.0934C8.96164 36.3956 8.533 35.6993 8.10363 35.0029C8.07666 34.9581 8.04823 34.914 8.02636 34.8669C8.01542 34.8456 8.01542 34.8154 8.05406 34.8118C8.09926 34.8081 8.14372 34.8081 8.18892 34.8081C9.00902 34.8081 9.82839 34.8081 10.6478 34.8081C10.6864 34.8081 10.7258 34.8096 10.7637 34.8096C10.7987 34.8103 10.8256 34.825 10.8446 34.8551C10.873 34.8985 10.9014 34.9419 10.9277 34.986C12.1341 36.9721 13.3413 38.9581 14.5478 40.9441C14.9188 41.5544 15.2899 42.1647 15.6602 42.7757C15.6966 42.836 15.736 42.8956 15.7768 42.9603C15.8519 42.9346 15.8687 42.8647 15.9008 42.814C16.1851 42.3478 16.4664 41.8809 16.7493 41.4147C17.7356 39.7875 18.7197 38.161 19.7053 36.5338C20.0144 36.0243 20.3234 35.5125 20.6325 35.0015C20.6493 34.9743 20.6697 34.9478 20.6828 34.9184C20.7229 34.8287 20.7914 34.8074 20.8848 34.8081C21.7107 34.811 22.5366 34.8096 23.3625 34.8096C23.3881 34.8096 23.4136 34.8096 23.4398 34.811C23.4908 34.814 23.5113 34.8441 23.4879 34.886C23.4668 34.9265 23.442 34.9647 23.4179 35.0022C21.7355 37.7243 20.0537 40.4471 18.3705 43.1691C18.0877 43.6272 17.8048 44.086 17.5213 44.5434C17.3981 44.7426 17.2669 44.9338 17.1079 45.1088C16.828 45.4162 16.4832 45.5816 16.0742 45.6206C16.0174 45.6279 15.9569 45.6169 15.908 45.6596C15.7921 45.6588 15.6755 45.6588 15.5596 45.6588Z" fill="#00A0FA"/>
<path fill-rule="evenodd" clip-rule="evenodd" d="M0.0725098 34.8029C0.787635 34.8037 1.50276 34.8037 2.21788 34.8037C2.2762 34.8037 2.33452 34.8059 2.39138 34.8074C2.41398 34.8081 2.42273 34.825 2.43366 34.8426C2.34618 34.9184 2.23902 34.9044 2.1377 34.9044C1.59024 34.9051 1.04278 34.9044 0.495316 34.9051C0.224866 34.9051 0.213202 34.9169 0.213202 35.1912C0.212473 37.4346 0.213202 39.6772 0.211015 41.9184C0.211015 42.0375 0.24309 42.1691 0.143949 42.2706C0.0980239 42.225 0.125725 42.1478 0.0725098 42.1051C0.0725098 39.6706 0.0725098 37.236 0.0725098 34.8029Z" fill="#00A0FA"/>
<path fill-rule="evenodd" clip-rule="evenodd" d="M28.1351 45.3985C26.7348 45.3985 25.3351 45.3985 23.9348 45.3985C23.6716 45.3985 23.6993 45.4213 23.6993 45.1551C23.6979 44.6471 23.6986 44.139 23.6986 43.6316C23.6986 43.6 23.6979 43.5669 23.6986 43.5338C23.7022 43.4015 23.7022 43.4 23.8262 43.3971C23.8714 43.3956 23.9166 43.3971 23.9618 43.3971C24.9036 43.3971 25.8462 43.3971 26.788 43.3971C28.3881 43.3971 29.9889 43.3971 31.5883 43.3971C31.7946 43.3971 32.0016 43.3978 32.2057 43.3544C32.3005 43.3353 32.3938 43.3096 32.4828 43.2728C32.6337 43.2073 32.7379 43.0985 32.7918 42.9412C32.8348 42.8184 32.8589 42.6912 32.8596 42.5596C32.8596 42.3316 32.8582 42.1029 32.8604 41.875C32.8604 41.7757 32.8421 41.6801 32.8174 41.586C32.759 41.3647 32.6249 41.2073 32.4113 41.1221C32.2415 41.0537 32.0643 41.0221 31.8828 41.0132C31.7735 41.0074 31.6634 41.0096 31.554 41.0096C29.9598 41.0096 28.3655 41.0088 26.7727 41.0096C26.3914 41.0096 26.0116 40.9934 25.6348 40.9331C25.3607 40.8882 25.0924 40.8176 24.838 40.7022C24.3241 40.4654 23.9953 40.0713 23.8495 39.5213C23.7832 39.2691 23.7423 39.0118 23.7314 38.7507C23.711 38.2765 23.7088 37.8015 23.7321 37.3265C23.7496 36.9743 23.8101 36.6287 23.9231 36.2941C24.1345 35.6662 24.5464 35.2404 25.1704 35.0301C25.2987 34.9853 25.4299 34.9493 25.5619 34.9198C25.8972 34.8434 26.2376 34.8184 26.5795 34.8118C26.8704 34.8059 27.1605 34.8096 27.4506 34.8096C29.7608 34.8096 32.0709 34.8096 34.381 34.8096C34.6405 34.8096 34.6165 34.7787 34.6172 35.0529C34.6179 35.5596 34.6172 36.0676 34.6172 36.575C34.6172 36.6015 34.6172 36.6272 34.6172 36.6537C34.6157 36.8176 34.6157 36.8184 34.4605 36.8213C34.416 36.8213 34.3708 36.8213 34.3256 36.8213C31.9185 36.8213 29.5114 36.8213 27.1051 36.8213C26.963 36.8213 26.8208 36.8243 26.6794 36.8294C26.5496 36.8353 26.425 36.8669 26.3032 36.9147C26.1181 36.989 25.9927 37.1191 25.9315 37.3118C25.8921 37.436 25.8651 37.5632 25.8622 37.6948C25.8586 37.9029 25.8593 38.111 25.86 38.3198C25.8607 38.4316 25.8855 38.539 25.9183 38.6441C25.9818 38.8441 26.1137 38.9779 26.3091 39.0471C26.4621 39.1015 26.6225 39.1228 26.7836 39.1287C26.874 39.1323 26.9644 39.1316 27.0548 39.1316C28.6104 39.1316 30.1653 39.1316 31.7202 39.1316C32.0556 39.1316 32.3916 39.136 32.7248 39.1779C33.0258 39.2169 33.324 39.2713 33.6105 39.3735C34.3198 39.6287 34.7535 40.1287 34.9088 40.8721C34.9576 41.1073 34.9926 41.3456 34.9941 41.5875C34.997 42.0301 34.9977 42.4728 34.9933 42.9162C34.9904 43.1963 34.9467 43.4728 34.8804 43.7449C34.7178 44.4169 34.3096 44.8669 33.6768 45.1199C33.375 45.2397 33.0608 45.3066 32.7401 45.3493C32.4062 45.3956 32.0716 45.3993 31.7356 45.3993C30.5357 45.4 29.3358 45.3985 28.1351 45.3985Z" fill="#00A0FA"/>
<path fill-rule="evenodd" clip-rule="evenodd" d="M14.0331 22.3029C13.9573 22.2493 13.8946 22.2669 13.8356 22.2647C12.9141 22.2338 11.992 22.2441 11.0706 22.2419C9.99314 22.2397 8.91644 22.2426 7.83974 22.2441C7.68447 22.2441 7.5292 22.2551 7.37466 22.2471C7.19387 22.2368 7.05245 22.2713 7.01454 22.4779C6.6989 23.1096 6.19226 23.4529 5.49098 23.439C4.61986 23.4221 4.06001 22.75 3.94264 22.0735C3.78008 21.1375 4.50249 20.1515 5.59377 20.1816C6.17841 20.1971 6.62381 20.4823 6.92998 20.9853C6.95841 21.0316 6.99267 21.0787 7.00506 21.1301C7.05099 21.3243 7.16908 21.3684 7.35935 21.3669C8.93175 21.3588 10.5041 21.3632 12.0773 21.361C12.1597 21.361 12.2442 21.3765 12.3346 21.3434C12.3149 21.2625 12.2537 21.2235 12.2063 21.1765C11.6836 20.6537 11.1595 20.1323 10.6361 19.6103C10.5865 19.5618 10.5348 19.5132 10.491 19.4588C10.3503 19.2838 10.3605 19.0397 10.5063 18.8809C10.6638 18.7096 10.9503 18.714 11.0961 18.8529C11.1748 18.9287 11.2535 19.0037 11.3308 19.0809C12.0248 19.7735 12.718 20.4662 13.4113 21.1596C13.4499 21.1978 13.4878 21.236 13.5272 21.275C13.5965 21.3434 13.6796 21.3801 13.778 21.3794C13.8319 21.3794 13.8866 21.3801 13.9405 21.3801C15.6135 21.3801 17.2873 21.3794 18.9603 21.3794C19.2227 21.3794 19.2344 21.4059 19.2336 21.1162C19.2322 20.6154 19.2285 20.1162 19.2373 19.6162C19.2402 19.4522 19.1855 19.3375 19.0725 19.225C18.2371 18.3882 17.4032 17.55 16.5758 16.7044C16.4438 16.5691 16.3075 16.5191 16.1238 16.5198C13.6992 16.5243 11.2739 16.5228 8.84937 16.5228C8.80272 16.5228 8.75606 16.5213 8.70941 16.5235C8.57747 16.5287 8.46812 16.4765 8.37262 16.3897C8.33763 16.3581 8.30629 16.3235 8.27348 16.2904C7.68156 15.6934 7.0889 15.0978 6.49697 14.5007C6.46927 14.4735 6.44011 14.4478 6.41532 14.4176C6.36211 14.3573 6.30817 14.3478 6.23089 14.3846C6.00345 14.4912 5.76508 14.5485 5.51139 14.5448C4.7241 14.5346 4.06146 13.939 3.93681 13.1522C3.80559 12.3213 4.39096 11.314 5.499 11.2853C6.35409 11.2625 6.94966 11.8596 7.11004 12.5441C7.18366 12.8581 7.15596 13.1647 7.05682 13.4669C7.04006 13.5191 7.02402 13.5728 6.99778 13.6206C6.95695 13.6956 6.97664 13.7493 7.0335 13.8059C7.24344 14.014 7.44974 14.225 7.65823 14.4353C8.01397 14.7949 8.37189 15.1522 8.72399 15.5147C8.82386 15.6184 8.93175 15.6618 9.0739 15.661C10.2592 15.6573 11.4445 15.6581 12.6298 15.6566C12.6605 15.6566 12.6918 15.6551 12.7224 15.6522C12.753 15.65 12.7742 15.6066 12.7538 15.5846C12.718 15.5434 12.6801 15.5044 12.6422 15.4654C12.4563 15.2772 12.2705 15.0882 12.0831 14.9007C11.992 14.8096 11.9315 14.7059 11.9315 14.5713C11.93 14.2397 12.2551 14.0324 12.5504 14.1779C12.6284 14.2162 12.6874 14.2794 12.7472 14.3404C13.1197 14.7169 13.4959 15.089 13.8618 15.4699C13.9894 15.6037 14.125 15.6654 14.3116 15.6625C15.0012 15.6529 15.6908 15.6573 16.3797 15.6581C16.4642 15.6581 16.5503 15.6596 16.6341 15.6728C16.7354 15.689 16.8236 15.7412 16.8987 15.811C16.9556 15.8632 17.0103 15.9191 17.0649 15.975C17.9747 16.8919 18.8837 17.8088 19.7928 18.7265C19.8256 18.7596 19.8584 18.7926 19.8912 18.8257C20.0195 18.9522 20.0865 19.1051 20.0858 19.2868C20.0858 19.3412 20.0865 19.3963 20.0865 19.4515C20.0858 23.6559 20.0858 27.8596 20.0843 32.0632C20.0843 32.3522 20.112 32.3235 19.8212 32.3235C19.6506 32.325 19.4808 32.3228 19.3102 32.3206C19.2664 32.3198 19.2373 32.2978 19.2351 32.2507C19.2329 32.1728 19.2314 32.0941 19.2314 32.0162C19.2314 28.8757 19.2314 25.7338 19.2314 22.5934C19.2314 22.5228 19.2329 22.4529 19.2307 22.3823C19.2271 22.2706 19.2074 22.2507 19.0915 22.2449C19.0375 22.2419 18.9829 22.2441 18.9289 22.2441C17.8289 22.2434 16.7289 22.2426 15.6288 22.2426C15.5749 22.2426 15.521 22.2434 15.4663 22.2434C15.3934 22.2441 15.33 22.2691 15.2782 22.3199C15.2396 22.3588 15.2009 22.3963 15.1623 22.4353C14.5164 23.0882 13.8706 23.7404 13.2247 24.3919C13.1919 24.4257 13.1605 24.4603 13.1263 24.4926C13.0789 24.5368 13.0789 24.5846 13.1044 24.6397C13.1664 24.775 13.2145 24.9147 13.2422 25.061C13.4171 25.9801 12.7647 26.9632 11.6814 26.9934C10.9211 27.014 10.2833 26.5037 10.093 25.7941C9.84807 24.8816 10.4123 23.8993 11.4453 23.7426C11.7099 23.7029 11.9708 23.7404 12.2223 23.8338C12.2734 23.8522 12.3229 23.8735 12.3725 23.8963C12.4133 23.9154 12.4476 23.9044 12.4775 23.8757C12.5001 23.8544 12.522 23.8324 12.5438 23.8103C13.0096 23.3404 13.4755 22.8713 13.9405 22.4015C13.9712 22.3743 13.9952 22.3441 14.0331 22.3029Z" fill="#00A0FA"/>
<path fill-rule="evenodd" clip-rule="evenodd" d="M25.2375 25.7206C25.2375 23.6184 25.2375 21.5162 25.2375 19.414C25.2375 19.3676 25.2382 19.3206 25.2375 19.2743C25.2353 19.1088 25.2958 18.9691 25.4088 18.8522C25.5006 18.7574 25.5947 18.664 25.688 18.5706C26.164 18.089 26.6458 17.6132 27.1131 17.1243C27.299 16.9287 27.5053 16.8456 27.7721 16.8463C29.7163 16.8529 31.6612 16.8478 33.6054 16.8551C33.7986 16.8559 33.9385 16.8331 33.9771 16.6162C34.2476 16.0103 34.884 15.586 35.6399 15.6669C36.2931 15.736 36.8756 16.2419 37.0228 16.9132C37.2794 18.0846 36.3463 18.9243 35.4825 18.9162C34.8344 18.9088 34.3599 18.6169 34.0304 18.0647C34.0063 18.0243 33.9859 17.9824 33.9669 17.9397C33.8576 17.6971 33.9196 17.7287 33.6243 17.7279C31.7654 17.7265 29.9058 17.7265 28.0469 17.7265C28.0163 17.7265 27.985 17.7287 27.9544 17.7265C27.8027 17.711 27.6905 17.7743 27.5855 17.8824C27.1452 18.3338 26.7012 18.7809 26.2544 19.225C26.1538 19.325 26.1006 19.4294 26.102 19.575C26.1071 20.1213 26.1042 20.6684 26.1042 21.2154C26.1042 21.2235 26.1042 21.2309 26.1042 21.2382C26.1086 21.3456 26.1254 21.3647 26.2223 21.3691C26.2923 21.3721 26.3623 21.3713 26.4323 21.3713C29.6237 21.3713 32.8159 21.3713 36.0073 21.3713C36.6583 21.3713 37.3086 21.3713 37.9595 21.3713C38.0215 21.3706 38.0835 21.3713 38.1454 21.3691C38.1957 21.3676 38.2336 21.3463 38.2526 21.2956C38.2759 21.2382 38.2971 21.1794 38.3255 21.1235C38.6331 20.5081 39.1317 20.1772 39.8126 20.1816C40.6269 20.1868 41.3311 20.7963 41.404 21.6838C41.4761 22.5721 40.8426 23.2868 40.0634 23.4154C39.3264 23.5375 38.6193 23.1676 38.3182 22.4728C38.2475 22.3096 38.1673 22.2581 37.996 22.2588C35.8346 22.2647 33.6732 22.2625 31.5118 22.2647C31.441 22.2647 31.3375 22.2191 31.3062 22.3044C31.2843 22.3625 31.3762 22.414 31.4221 22.464C31.8464 22.9199 32.2859 23.361 32.7299 23.7971C32.7634 23.8301 32.7969 23.8625 32.8327 23.8934C32.864 23.9206 32.8997 23.9279 32.9398 23.9088C32.9821 23.8904 33.0244 23.8706 33.0681 23.8529C33.9371 23.4934 35.0466 23.9537 35.2616 25.0581C35.4613 26.0846 34.6843 26.9324 33.8015 26.9875C32.9128 27.0441 32.2509 26.4448 32.0964 25.7073C32.0359 25.4184 32.0541 25.1324 32.1431 24.8515C32.1642 24.7838 32.1853 24.7162 32.2174 24.6544C32.2582 24.5765 32.2334 24.5221 32.1759 24.4699C32.1416 24.4382 32.1102 24.4029 32.0774 24.3699C31.4374 23.7228 30.7959 23.0757 30.1551 22.4294C30.1223 22.3956 30.0895 22.3632 30.056 22.3301C29.9977 22.275 29.9284 22.2434 29.8468 22.2434C29.8009 22.2441 29.7542 22.2426 29.7075 22.2426C28.5995 22.2434 27.4922 22.2434 26.3841 22.2449C26.0889 22.2449 26.1049 22.2213 26.1049 22.5206C26.1049 25.6772 26.1049 28.8346 26.1042 31.9919C26.1042 32.3757 26.1538 32.3206 25.7703 32.3243C25.6231 32.3265 25.4758 32.3243 25.3286 32.3228C25.2746 32.3221 25.2418 32.2963 25.2411 32.2382C25.2404 32.1676 25.2397 32.0978 25.2397 32.0279C25.2382 29.925 25.2382 27.8228 25.2375 25.7206Z" fill="#00A0FA"/>
<path fill-rule="evenodd" clip-rule="evenodd" d="M0.14322 42.2699C0.146136 42.2243 0.151968 42.1801 0.151968 42.1338C0.151239 39.7794 0.15051 37.4265 0.149781 35.0713C0.149781 35.0265 0.149052 34.9809 0.15051 34.9353C0.154884 34.8632 0.172379 34.8478 0.247464 34.8434C0.298492 34.8404 0.350978 34.8419 0.402007 34.8419C1.07922 34.8419 1.75571 34.8419 2.43293 34.8419C2.43585 34.9191 2.44241 34.9971 2.44241 35.075C2.44241 37.2412 2.44241 39.4096 2.44241 41.5772C2.44241 41.8375 2.45699 42.0978 2.50656 42.3529C2.6006 42.8353 2.88563 43.1382 3.34998 43.2728C3.62554 43.3529 3.90911 43.3706 4.19195 43.3831C4.31442 43.3882 4.43761 43.3853 4.56008 43.3853C6.47656 43.3853 8.39303 43.3838 10.3095 43.3853C10.5931 43.3853 10.5566 43.3544 10.5581 43.6331C10.5595 44.1463 10.5581 44.661 10.5581 45.1765C10.5581 45.2272 10.5574 45.2801 10.5559 45.3324C10.5552 45.3713 10.5318 45.3926 10.4961 45.3949C10.4517 45.4 10.4057 45.3985 10.3605 45.3985C8.26328 45.3985 6.16674 45.3985 4.06875 45.3985C3.70135 45.3985 3.33322 45.389 2.968 45.3449C2.5379 45.2919 2.1151 45.2125 1.70979 45.0493C0.996122 44.7596 0.533951 44.2456 0.322548 43.5022C0.210286 43.1 0.145407 42.6882 0.14322 42.2699Z" fill="#00A0FA"/>
<path d="M48.8461 45.3463C48.8402 45.3426 48.8366 45.3382 48.8308 45.336C46.8807 44.1993 44.9315 43.0632 42.9829 41.9272C42.9662 41.9162 42.9494 41.9088 42.9319 41.8985C42.921 41.8919 42.9115 41.8831 42.9005 41.8757C42.8954 41.8728 42.8889 41.8691 42.8852 41.8632C42.8823 41.8588 42.8838 41.8515 42.8794 41.8184C42.9596 41.8184 43.0303 41.8198 43.1003 41.8184C43.8103 41.8125 44.5196 41.8309 45.2289 41.8029C45.6619 41.7846 46.092 41.7471 46.5177 41.6713C46.8618 41.611 47.1957 41.5125 47.5106 41.3551C48.0456 41.089 48.4145 40.6728 48.6113 40.1051C48.6988 39.8507 48.7542 39.5904 48.7754 39.3235C48.8293 38.661 48.8278 37.9971 48.7739 37.3346C48.7491 37.0368 48.6871 36.7426 48.5873 36.461C48.3985 35.9265 48.0573 35.5294 47.555 35.2721C47.3524 35.1698 47.1403 35.0926 46.9223 35.0331C46.5148 34.9243 46.0986 34.8765 45.6801 34.8463C45.2617 34.8169 44.8425 34.8073 44.4226 34.8073C41.8479 34.8103 39.2739 34.8088 36.6992 34.8088C36.4185 34.8103 36.4411 34.7713 36.4411 35.0706C36.4411 38.4221 36.4411 41.7735 36.4411 45.1257C36.4411 45.1713 36.4411 45.2176 36.4411 45.264C36.4447 45.3882 36.4513 45.3963 36.5723 45.3985C36.6175 45.4007 36.6634 45.3985 36.7086 45.3985C37.2896 45.3985 37.8699 45.4007 38.4501 45.3971C38.5507 45.3971 38.6557 45.4243 38.7519 45.3698C38.7826 45.2743 38.7665 45.1765 38.7665 45.0794C38.768 44.0184 38.7672 42.9581 38.768 41.8971C38.768 41.7949 38.7621 41.6912 38.784 41.5926C38.838 41.5838 38.8664 41.614 38.8985 41.6338C39.0246 41.7118 39.15 41.7919 39.2768 41.8713C41.1007 43.0147 42.9253 44.1573 44.7485 45.3037C44.8564 45.3721 44.9657 45.4022 45.094 45.4007C46.2808 45.3971 47.4683 45.3985 48.6558 45.3985C48.7068 45.3985 48.7593 45.3985 48.8103 45.3971C48.8366 45.3971 48.8614 45.3948 48.8606 45.3581C48.8563 45.3537 48.8504 45.35 48.8461 45.3463ZM38.9801 40.0301C38.768 40.0294 38.7673 40.0551 38.7673 39.8198C38.768 38.8831 38.7673 37.9471 38.7673 37.0103C38.7673 36.9838 38.7665 36.9581 38.768 36.9316C38.7716 36.8103 38.7782 36.8029 38.9021 36.8007C38.9349 36.7993 38.967 36.8007 38.9991 36.8007C40.8448 36.8007 42.6891 36.8007 44.5342 36.8007C44.8892 36.8007 45.2435 36.8162 45.5948 36.8691C45.7035 36.8846 45.8084 36.9154 45.9112 36.9559C46.1416 37.0478 46.2976 37.2118 46.3756 37.4485C46.4208 37.5846 46.4514 37.7243 46.4558 37.8676C46.4674 38.2316 46.4681 38.5956 46.4558 38.9603C46.4514 39.0985 46.4222 39.2309 46.3814 39.3625C46.307 39.6096 46.1452 39.7757 45.9105 39.8721C45.7355 39.9441 45.5511 39.9772 45.3645 39.9926C45.0685 40.0184 44.7718 40.0323 44.4751 40.0316C43.6295 40.0279 42.7854 40.0301 41.9398 40.0301C40.9534 40.0301 39.9664 40.0316 38.9801 40.0301Z" fill="#00A0FA"/>
</svg>
